<svg width="21" height="20" viewBox="0 0 21 20" fill="none" xmlns="http://www.w3.org/2000/svg">
<path opacity="0.4" d="M15.4487 6.47509C15.3904 6.46675 15.332 6.46675 15.2737 6.47509C13.982 6.43342 12.957 5.37508 12.957 4.07508C12.957 2.75008 14.032 1.66675 15.3654 1.66675C16.6904 1.66675 17.7737 2.74175 17.7737 4.07508C17.7654 5.37508 16.7404 6.43342 15.4487 6.47509Z" fill="#2EC4B6"/>
<path opacity="0.4" d="M18.1654 12.2501C17.232 12.8751 15.9237 13.1084 14.7154 12.9501C15.032 12.2667 15.1987 11.5084 15.207 10.7084C15.207 9.87509 15.0237 9.08343 14.6737 8.39176C15.907 8.22509 17.2154 8.45842 18.157 9.08342C19.4737 9.95008 19.4737 11.3751 18.1654 12.2501Z" fill="#2EC4B6"/>
<path opacity="0.4" d="M6.20696 6.47509C6.26529 6.46675 6.32362 6.46675 6.38196 6.47509C7.67362 6.43342 8.69862 5.37508 8.69862 4.07508C8.69862 2.75008 7.62362 1.66675 6.29029 1.66675C4.96529 1.66675 3.88196 2.74175 3.88196 4.07508C3.89029 5.37508 4.91529 6.43342 6.20696 6.47509Z" fill="#2EC4B6"/>
<path opacity="0.4" d="M6.29864 10.7083C6.29864 11.5167 6.47364 12.2833 6.79031 12.975C5.61531 13.1 4.39031 12.85 3.49031 12.2583C2.17364 11.3833 2.17364 9.95833 3.49031 9.08333C4.38197 8.48333 5.64031 8.24167 6.82364 8.37501C6.48197 9.07501 6.29864 9.86668 6.29864 10.7083Z" fill="#2EC4B6"/>
<path d="M10.9403 13.225C10.8737 13.2167 10.7987 13.2167 10.7237 13.225C9.19033 13.175 7.96533 11.9167 7.96533 10.3667C7.96533 8.78334 9.24033 7.5 10.832 7.5C12.4153 7.5 13.6987 8.78334 13.6987 10.3667C13.6987 11.9167 12.482 13.175 10.9403 13.225Z" fill="#2EC4B6"/>
<path d="M8.23196 14.95C6.97362 15.7916 6.97362 17.1749 8.23196 18.0083C9.66529 18.9666 12.0153 18.9666 13.4486 18.0083C14.707 17.1666 14.707 15.7833 13.4486 14.95C12.0236 13.9916 9.67362 13.9916 8.23196 14.95Z" fill="#2EC4B6"/>
</svg>
