<svg width="310" height="343" viewBox="0 0 310 343" fill="none" xmlns="http://www.w3.org/2000/svg">
<path fill-rule="evenodd" clip-rule="evenodd" d="M69.5636 46.1071C69.9262 45.1181 68.7136 42.5223 65.7625 42.0708C62.8115 41.6193 56.9475 43.317 54.771 44.678C54.2783 44.2283 54.3122 42.9301 54.3547 41.305C54.4259 38.5855 54.5209 34.9503 52.212 32.8429C48.0076 29.0053 45.2018 30.5442 45.2018 30.5442C45.2018 30.5442 49.7577 24.3632 58.4199 35.9C60.3242 38.4362 58.573 26.2594 50.2665 21.5721C49.5919 21.1914 50.4949 20.878 51.8907 20.3936C54.2435 19.5771 57.9964 18.2748 57.9516 15.345C57.9404 14.6156 55.3087 10.8029 51.6089 9.19545C49.5925 8.31936 45.8093 6.87977 41.2 12.4115C40.9893 12.6643 40.7592 12.8943 40.7592 12.8943C35.9751 11.7283 25.2486 16.7415 24.3853 21.3719C23.5221 26.0023 28.6228 27.0823 30.1316 24.5379C32.1527 21.5559 36.6954 15.9137 39.5445 16.2721C40.7393 16.4224 41.5391 20.2023 40.751 21.6628C40.1461 22.6397 37.9035 24.3629 35.5454 26.1749C33.2405 27.946 30.8253 29.8018 29.7215 31.1282C22.1105 40.2736 31.4854 46.5153 31.4854 46.5153L31.1354 46.8988C28.979 46.4956 26.4964 49.2377 26.1158 51.7253C25.7748 53.9535 28.7066 57.1924 31.6777 56.5023C34.6879 55.2796 35.5903 53.6727 35.6344 51.0053C35.6443 50.4011 36.2832 50.3598 37.3064 50.2936C39.0104 50.1834 41.7804 50.0044 44.4855 47.0407C46.8973 44.3983 47.284 46.0142 47.8159 48.2372C48.1596 49.6733 48.5639 51.3627 49.614 52.3212C51.5405 54.0796 53.1247 52.7184 54.8883 51.2029C55.574 50.6137 56.2868 50.0012 57.0574 49.5396C59.5111 48.0701 61.9123 48.32 63.9853 48.5357C66.4808 48.7955 68.5006 49.0057 69.5636 46.1071ZM49.7431 13.5841C50.1381 13.1514 50.1002 12.4737 49.6584 12.0705C49.2167 11.6673 48.5384 11.6912 48.1434 12.124C47.7484 12.5568 47.7862 13.2345 48.228 13.6377C48.6697 14.0409 49.3481 14.0169 49.7431 13.5841Z" fill="#9FE4DD"/>
<rect x="12.619" y="57.2651" width="11.6548" height="3.17354" rx="1.58677" transform="rotate(-47.6119 12.619 57.2651)" fill="#9FE4DD"/>
<rect x="12.0782" y="50.1423" width="11.6548" height="3.17354" rx="1.58677" transform="rotate(-47.6119 12.0782 50.1423)" fill="#9FE4DD"/>
<circle cx="155.1" cy="171.523" r="147.113" stroke="url(#paint0_linear_433_5259)" stroke-width="3.99595" stroke-dasharray="4 7.99"/>
<path d="M287.959 310.301C289.52 308.926 289.12 309.077 291.25 307.2C293.696 305.043 295.947 302.254 296.864 300.28C298.126 297.556 298.05 291.989 296.631 284.625C296.371 283.325 296.477 282.669 297.195 281.109C298.241 278.779 298.761 273.934 298.202 271.93C297.805 270.429 296.418 268.673 294.937 267.723C294.115 267.201 294.018 267.045 294.157 266.198C294.34 264.99 293.908 263.358 293.169 262.52C292.51 261.772 289.72 260.89 288.764 261.13C288.395 261.213 286.845 262.378 285.282 263.755L282.473 266.231L280.75 265.737C277.323 264.773 274.737 265.401 271.928 267.877C269.663 269.873 268.884 271.365 268.707 274.178C268.623 275.499 268.648 276.806 268.8 277.115C269.023 277.642 268.771 277.904 264.694 281.498C262.292 283.615 256.824 288.554 252.532 292.498L244.723 299.622L243.213 299.142C239.86 298.032 236.928 298.724 233.937 301.36C231.83 303.217 231.22 304.761 231.139 308.415L231.061 311.341L228.848 313.533C226.931 315.424 226.603 315.874 226.434 316.869C226.197 318.244 226.56 320.3 227.159 320.979C227.877 321.795 229.39 322.233 230.796 322L232.136 321.785L233.711 323.939C236.152 327.302 237.65 328.316 240.438 328.556C243.839 328.899 247.948 326.848 253.249 322.176L255.469 320.219L257.284 320.954C260.143 322.097 265.176 323.377 267.349 323.514C270.057 323.664 272.259 323.011 275.048 321.197L277.326 319.672L282.809 314.84C283.69 314.064 284.951 312.952 287.959 310.301ZM278.334 307.433C276.551 305.502 275.074 303.826 275.039 303.695C274.985 303.542 278.164 300.619 282.084 297.165L289.22 290.876L289.52 291.537C290.892 294.554 291.21 298.661 290.239 301.167C289.308 303.718 288.564 304.656 284.733 308.072L281.559 310.91L278.334 307.433ZM270.31 319.657C269.507 319.842 267.999 320.004 266.953 319.959C265.01 319.901 259.253 318.575 258.833 318.099C258.674 317.918 260.539 316.153 265.637 311.66L272.659 305.471L275.974 309.232L279.308 313.015L275.516 316.156C272.196 318.92 271.593 319.332 270.31 319.657ZM270.184 301.977C269.854 301.785 269.175 301.015 268.647 300.233C268.118 299.451 266.062 297.117 264.094 295.068C260.641 291.47 260.459 291.308 259.884 291.614C259.574 291.766 257.521 293.455 255.346 295.372L251.342 298.82C250.324 299.395 251.682 298.521 249.393 300.538C249.982 300.019 248.734 301.159 248.953 301.408C250.131 302.745 251.518 309.251 251.036 311.125C250.372 313.522 246.3 317.351 243.242 318.357C241.318 319.005 238.084 318.716 235.561 317.68L233.248 316.699L231.654 318.225L230.063 319.708L229.404 318.96C228.186 317.578 228.344 317.117 230.578 315.269L232.564 313.639L233.86 314.791C237.508 318.016 242.451 318.007 246.121 314.773C248.046 313.076 248.857 311.757 249.106 309.848C250.154 305.784 247.231 302.468 246.632 301.789C246.373 301.494 247.865 300.356 247.963 300.148C248.155 299.818 263.896 285.663 268.034 282.137L269.662 280.742L270.836 281.8C272.478 283.252 275.547 284.451 277.558 284.449C281.35 284.367 284.896 282.088 286.367 278.779C287.818 275.447 287.591 272.266 285.661 268.936L284.718 267.271L285.541 266.425C286.02 265.963 287.079 265.11 287.884 264.561C289.225 263.662 289.528 263.595 290.492 263.913C291.394 264.205 291.576 264.366 291.587 264.881C291.62 265.375 291.229 265.799 289.697 267.029L287.825 268.559L288.357 270.625C289.429 274.672 289.037 277.835 287.068 280.898C285.285 283.717 281.348 286.1 278.278 286.27C276.281 286.38 273.247 285.632 271.366 284.594C268.597 283.05 269.34 282.797 265.269 286.627L261.653 290.014L266.332 295.551C268.899 298.601 271.04 301.304 271.089 301.542C271.176 302.19 270.822 302.381 270.184 301.977ZM294.705 274.127C294.193 272.405 293.576 270.654 293.344 270.255C293.155 269.858 293.008 269.142 293.058 268.696L293.174 267.869L294.313 269.481C295.078 270.578 295.585 271.701 295.848 272.958C296.281 274.911 296.322 277.652 295.91 277.412C295.787 277.319 295.237 275.872 294.705 274.127ZM279.781 280.075C278.164 280.615 277.311 280.561 275.542 279.786C273.729 279.009 273.268 278.53 272.665 276.888C272.014 275.007 272.67 272.737 274.383 271.027C275.503 269.878 275.926 269.627 277.246 269.389C279.239 269.001 280.791 269.484 281.989 270.843C284.705 273.924 283.521 278.792 279.781 280.075ZM242.257 312.946C239.5 314.248 235.358 312.425 234.637 309.598C233.917 306.771 236.166 303.34 239.208 302.591C241.644 301.974 244.57 303.742 245.187 306.177C245.783 308.59 245.287 310.355 243.546 312.171C243.365 312.331 242.784 312.722 242.257 312.946Z" fill="#9FE4DD"/>
<path d="M281.76 275.621C282.362 273.198 280.346 270.91 277.986 271.339C275.798 271.779 274.345 273.784 274.866 275.699C275.378 277.422 276.093 277.959 277.925 278.075C279.332 278.163 279.723 278.06 280.584 277.301C281.128 276.822 281.668 276.064 281.76 275.621ZM278.467 276.269C277.146 276.186 276.617 273.713 277.872 273.493C278.607 273.368 279.704 274.293 279.718 275.085C279.741 275.75 279.149 276.312 278.467 276.269Z" fill="#9FE4DD"/>
<path d="M243.589 308.9C243.947 307.981 243.202 306.544 242.503 305.751C241.864 305.026 239.628 304.542 238.815 305.218C236.92 306.767 236.569 307.922 237.397 309.729C238.582 312.307 242.531 311.764 243.589 308.9ZM240.123 309.58C239.68 309.487 238.981 309.217 238.791 308.499C238.512 307.498 239.443 306.798 240.278 306.787C240.877 306.782 241.949 307.769 241.917 308.281C241.884 308.792 240.697 309.637 240.123 309.58Z" fill="#9FE4DD"/>
<defs>
<linearGradient id="paint0_linear_433_5259" x1="125.28" y1="-22.982" x2="301.688" y2="48.0936" gradientUnits="userSpaceOnUse">
<stop stop-color="#9FE4DD"/>
<stop offset="1" stop-color="#2EC4B5"/>
</linearGradient>
</defs>
</svg>
