<svg width="21" height="20" viewBox="0 0 21 20" fill="none" xmlns="http://www.w3.org/2000/svg">
<path opacity="0.4" d="M14.582 18.3334H7.09861C4.17361 18.3334 3.54028 16.6584 3.78195 14.6084L4.53195 8.35841C4.72361 6.74175 5.00695 5.41675 7.84028 5.41675H13.8403C16.6736 5.41675 16.957 6.74175 17.1486 8.35841L17.7736 13.5667L17.8986 14.6084C17.907 14.6751 17.9153 14.7417 17.9236 14.8084C18.0986 16.7667 17.4153 18.3334 14.582 18.3334Z" fill="#2EC4B6"/>
<path d="M14.1736 7.29175C13.832 7.29175 13.5486 7.00841 13.5486 6.66675V3.75008C13.5486 2.85008 12.9903 2.29175 12.0903 2.29175H9.59029C8.69029 2.29175 8.13196 2.85008 8.13196 3.75008V6.66675C8.13196 7.00841 7.84862 7.29175 7.50696 7.29175C7.16529 7.29175 6.88196 7.00841 6.88196 6.66675V3.75008C6.88196 2.15841 7.99862 1.04175 9.59029 1.04175H12.0903C13.682 1.04175 14.7986 2.15841 14.7986 3.75008V6.66675C14.7986 7.00841 14.5153 7.29175 14.1736 7.29175Z" fill="#2EC4B6"/>
<path d="M17.9236 14.8083C17.8986 14.8166 17.8736 14.8167 17.8486 14.8167H7.50696C7.16529 14.8167 6.88196 14.5333 6.88196 14.1917C6.88196 13.8417 7.16529 13.5667 7.50696 13.5667H17.7736L17.8986 14.6083C17.907 14.675 17.9153 14.7416 17.9236 14.8083Z" fill="#2EC4B6"/>
</svg>
